<!-- Auto-generated by tools/build_guide.py. -->
<svg xmlns="http://www.w3.org/2000/svg" width="1200" height="710" viewBox="0 0 1200 710" role="img" aria-label="HK1V11 checker topology">
<defs><marker id="arrow" markerWidth="9" markerHeight="9" refX="8" refY="4.5" orient="auto"><path d="M0 0L9 4.5L0 9Z" fill="#65727d"/></marker></defs>
<style>.box{fill:#fff;stroke:#70808d;stroke-width:1.4}.green{fill:#dff3ee;stroke:#087e6b;stroke-width:1.6}.blue{fill:#e5eef7;stroke:#245c91;stroke-width:1.5}.amber{fill:#fff0d8;stroke:#a85d00;stroke-width:1.5}.group{fill:#f4f6f8;stroke:#9aa7b1;stroke-width:1.2;stroke-dasharray:6 4}.line{fill:none;stroke:#65727d;stroke-width:1.5;marker-end:url(#arrow)}.dash{fill:none;stroke:#087e6b;stroke-width:1.5;stroke-dasharray:5 4;marker-end:url(#arrow)}text{font-family:Segoe UI,Microsoft YaHei,sans-serif;fill:#1b232b;font-size:15px}.small{font-size:12px;fill:#5f6d78}.title{font-size:17px;font-weight:700}</style>

<text class="title" x="36" y="34">HK1V11 checker_agent build/connect topology</text>
<rect class="group" x="30" y="55" width="1140" height="585" rx="9"/><text class="title" x="50" y="86">checker_agent (created unconditionally)</text>
<rect class="blue" x="65" y="125" width="200" height="80" rx="6"/><text x="165" y="155" text-anchor="middle">Data Merge tap</text><text class="small" x="165" y="180" text-anchor="middle">data_merge_intf_0</text>
<rect class="green" x="330" y="125" width="245" height="80" rx="6"/><text x="452" y="155" text-anchor="middle">data_merge_monitor</text><text class="small" x="452" y="180" text-anchor="middle">out_data_dump_aport</text>
<rect class="amber" x="650" y="125" width="250" height="80" rx="6"/><text x="775" y="155" text-anchor="middle">data_merge_scoreboard</text><text class="small" x="775" y="180" text-anchor="middle">out_data_dump_aexport</text><path class="line" d="M265 165H330"/><path class="line" d="M575 165H650"/>
<rect class="blue" x="65" y="245" width="200" height="92" rx="6"/><text x="165" y="275" text-anchor="middle">Digital Top taps</text><text class="small" x="165" y="299" text-anchor="middle">OL / EL / ER / OR</text><text class="small" x="165" y="320" text-anchor="middle">digital_top_intf_0</text>
<rect class="green" x="330" y="245" width="245" height="92" rx="6"/><text x="452" y="275" text-anchor="middle">digital_top_monitor</text><text class="small" x="452" y="299" text-anchor="middle">4 analysis ports</text>
<rect class="amber" x="650" y="245" width="250" height="92" rx="6"/><text x="775" y="275" text-anchor="middle">digital_top_scoreboard</text><text class="small" x="775" y="299" text-anchor="middle">4 analysis exports</text><path class="line" d="M265 291H330"/><path class="line" d="M575 291H650"/>
<rect class="blue" x="65" y="380" width="200" height="80" rx="6"/><text x="165" y="410" text-anchor="middle">Chopper tap</text><text class="small" x="165" y="435" text-anchor="middle">chopper_intf_0</text>
<rect class="green" x="330" y="380" width="245" height="80" rx="6"/><text x="452" y="410" text-anchor="middle">chopper_monitor</text><text class="small" x="452" y="435" text-anchor="middle">chopper_dump_aport_d</text>
<rect class="amber" x="650" y="380" width="250" height="80" rx="6"/><text x="775" y="410" text-anchor="middle">chopper_scoreboard</text><text class="small" x="775" y="435" text-anchor="middle">out_data_chop_aexport_d</text><path class="line" d="M265 420H330"/><path class="line" d="M575 420H650"/>
<rect class="blue" x="65" y="505" width="200" height="95" rx="6"/><text x="165" y="535" text-anchor="middle">Analog DUT taps</text><text class="small" x="165" y="559" text-anchor="middle">data / POL / unlock / VBK</text>
<rect class="green" x="330" y="505" width="245" height="95" rx="6"/><text x="452" y="535" text-anchor="middle">analog output monitor</text><text class="small" x="452" y="559" text-anchor="middle">4 analysis ports</text>
<rect class="amber" x="650" y="505" width="250" height="95" rx="6"/><text x="775" y="535" text-anchor="middle">analog output scoreboard</text><text class="small" x="775" y="559" text-anchor="middle">monitor/pol/unlock/vbk imp</text><path class="line" d="M265 552H330"/><path class="line" d="M575 552H650"/>
<rect class="box" x="950" y="125" width="180" height="475" rx="6"/><text x="1040" y="157" text-anchor="middle">Checker gates</text><text class="small" x="1040" y="186" text-anchor="middle">components exist</text><text class="small" x="1040" y="208" text-anchor="middle">runtime cfg controls</text><text class="small" x="1040" y="230" text-anchor="middle">comparison behavior</text><text class="small" x="1040" y="575" text-anchor="middle">not build gating</text>
<text class="small" x="36" y="690">Source: checker_env/checker_agent.sv and monitor/scoreboard analysis-port declarations</text>

</svg>
