<svg xmlns="http://www.w3.org/2000/svg" viewBox="0 0 960 660" width="960" height="660">
  <style>text { font-family: 'Helvetica Neue', Helvetica, Arial, 'PingFang SC', 'Microsoft YaHei', 'Microsoft JhengHei', 'SimHei', sans-serif; }</style>
  <defs>
    <marker id="ar-b" markerWidth="10" markerHeight="7" refX="9" refY="3.5" orient="auto"><polygon points="0 0, 10 3.5, 0 7" fill="#2563eb"/></marker>
    <marker id="ar-o" markerWidth="10" markerHeight="7" refX="9" refY="3.5" orient="auto"><polygon points="0 0, 10 3.5, 0 7" fill="#ea580c"/></marker>
    <marker id="ar-g" markerWidth="10" markerHeight="7" refX="9" refY="3.5" orient="auto"><polygon points="0 0, 10 3.5, 0 7" fill="#16a34a"/></marker>
    <marker id="ar-p" markerWidth="10" markerHeight="7" refX="9" refY="3.5" orient="auto"><polygon points="0 0, 10 3.5, 0 7" fill="#9333ea"/></marker>
    <marker id="ar-gr" markerWidth="10" markerHeight="7" refX="9" refY="3.5" orient="auto"><polygon points="0 0, 10 3.5, 0 7" fill="#6b7280"/></marker>
  </defs>
  <rect width="960" height="660" fill="#ffffff"/>
  <text x="480" y="30" font-size="17" font-weight="600" fill="#111827" text-anchor="middle">SH5（SH5_STBY）待机子系统 —— 三电源域架构（AOSHAN）</text>
  <rect x="36" y="56" width="210" height="470" rx="10" fill="#fafafa" stroke="#d1d5db" stroke-width="1.5" stroke-dasharray="6,4"/>
  <text x="50" y="80" font-size="15" font-weight="600" fill="#111827">AON 域</text>
  <text x="50" y="97" font-size="11" fill="#6b7280">常开电 · 永不掉电</text>
  <rect x="56" y="108" width="170" height="44" rx="8" fill="#f0fdfa" stroke="#99f6e4" stroke-width="1.5"/>
  <text x="141.0" y="126.0" font-size="13" font-weight="600" fill="#111827" text-anchor="middle">Bandgap + OSC</text>
  <text x="141.0" y="143.0" font-size="11" fill="#6b7280" text-anchor="middle">27 MHz 晶振</text>
  <rect x="56" y="166" width="170" height="52" rx="8" fill="#fff7ed" stroke="#fdba74" stroke-width="1.5"/>
  <text x="141.0" y="188.0" font-size="13" font-weight="600" fill="#111827" text-anchor="middle">PMU 状态机</text>
  <text x="141.0" y="205.0" font-size="11" fill="#6b7280" text-anchor="middle">27MHz · 与APB异步</text>
  <rect x="56" y="238" width="170" height="44" rx="8" fill="#fef2f2" stroke="#fca5a5" stroke-width="1.5"/>
  <text x="141.0" y="256.0" font-size="13" font-weight="600" fill="#111827" text-anchor="middle">Power Key</text>
  <text x="141.0" y="273.0" font-size="11" fill="#6b7280" text-anchor="middle">整机电源键输入</text>
  <rect x="56" y="302" width="170" height="40" rx="8" fill="#ffffff" stroke="#d1d5db" stroke-width="1.5"/>
  <text x="141.0" y="318.0" font-size="13" font-weight="600" fill="#111827" text-anchor="middle">PMU 寄存器</text>
  <text x="141.0" y="335.0" font-size="11" fill="#6b7280" text-anchor="middle">APB 27/166MHz</text>
  <rect x="56" y="364" width="170" height="62" rx="8" fill="#ffffff" stroke="#d1d5db" stroke-width="1.5"/>
  <text x="141.0" y="391.0" font-size="13" font-weight="600" fill="#111827" text-anchor="middle">电源/复位生成</text>
  <text x="141.0" y="408.0" font-size="11" fill="#6b7280" text-anchor="middle">stb_pwr_on / power_on</text>
  <rect x="56" y="450" width="170" height="56" rx="8" fill="#ffffff" stroke="#d1d5db" stroke-width="1.5"/>
  <text x="141.0" y="474.0" font-size="13" font-weight="600" fill="#111827" text-anchor="middle">Boot Status 寄存器</text>
  <text x="141.0" y="491.0" font-size="11" fill="#6b7280" text-anchor="middle">看门狗/SW/LVR 启动原因</text>
  <rect x="262" y="56" width="420" height="470" rx="10" fill="#fafafa" stroke="#d1d5db" stroke-width="1.5" stroke-dasharray="6,4"/>
  <text x="276" y="80" font-size="15" font-weight="600" fill="#111827">STBY 域 —— SH5_STBY</text>
  <text x="276" y="97" font-size="11" fill="#6b7280">常开电 · OFF 态无 OSC CLK</text>
  <rect x="372" y="108" width="200" height="66" rx="8" fill="#eff6ff" stroke="#93c5fd" stroke-width="1.5"/>
  <text x="472.0" y="137.0" font-size="13" font-weight="600" fill="#111827" text-anchor="middle">LEON3 CPU</text>
  <text x="472.0" y="154.0" font-size="11" fill="#6b7280" text-anchor="middle">SPARC V8 · 27/600MHz</text>
  <text x="472" y="166" font-size="10.5" fill="#6b7280" text-anchor="middle">I/D-Cache 4KB · DSU · 8 寄存器窗口</text>
  <rect x="322" y="190" width="320" height="30" rx="8" fill="#f3f4f6" stroke="#d1d5db" stroke-width="1.5"/>
  <text x="482.0" y="209.0" font-size="12" font-weight="600" fill="#111827" text-anchor="middle">AHB / APB 总线架构（含 int_misc 中断汇聚）</text>
  <rect x="302" y="240" width="108" height="46" rx="8" fill="#ffffff" stroke="#d1d5db" stroke-width="1.5"/>
  <text x="356.0" y="259.0" font-size="13" font-weight="600" fill="#111827" text-anchor="middle">GPIO ×34</text>
  <text x="356.0" y="276.0" font-size="11" fill="#6b7280" text-anchor="middle">输入/输出/中断</text>
  <rect x="422" y="240" width="108" height="46" rx="8" fill="#ffffff" stroke="#d1d5db" stroke-width="1.5"/>
  <text x="476.0" y="259.0" font-size="13" font-weight="600" fill="#111827" text-anchor="middle">SAR-ADC ×4</text>
  <text x="476.0" y="276.0" font-size="11" fill="#6b7280" text-anchor="middle">按键电压检测</text>
  <rect x="542" y="240" width="108" height="46" rx="8" fill="#ffffff" stroke="#d1d5db" stroke-width="1.5"/>
  <text x="596.0" y="259.0" font-size="13" font-weight="600" fill="#111827" text-anchor="middle">PWM</text>
  <text x="596.0" y="276.0" font-size="11" fill="#6b7280" text-anchor="middle">呼吸灯</text>
  <rect x="302" y="296" width="108" height="46" rx="8" fill="#ffffff" stroke="#d1d5db" stroke-width="1.5"/>
  <text x="356.0" y="315.0" font-size="13" font-weight="600" fill="#111827" text-anchor="middle">Cable 检测 ×5</text>
  <text x="356.0" y="332.0" font-size="11" fill="#6b7280" text-anchor="middle">HDMI/DP/VGA 插拔</text>
  <rect x="422" y="296" width="108" height="46" rx="8" fill="#ffffff" stroke="#d1d5db" stroke-width="1.5"/>
  <text x="476.0" y="315.0" font-size="13" font-weight="600" fill="#111827" text-anchor="middle">CEC ×2 / AUX ×2</text>
  <text x="476.0" y="332.0" font-size="11" fill="#6b7280" text-anchor="middle">指令唤醒</text>
  <rect x="542" y="296" width="108" height="46" rx="8" fill="#ffffff" stroke="#d1d5db" stroke-width="1.5"/>
  <text x="596.0" y="315.0" font-size="13" font-weight="600" fill="#111827" text-anchor="middle">Type-C ×2</text>
  <text x="596.0" y="332.0" font-size="11" fill="#6b7280" text-anchor="middle">插入唤醒</text>
  <rect x="302" y="352" width="108" height="46" rx="8" fill="#faf5ff" stroke="#d8b4fe" stroke-width="1.5"/>
  <text x="356.0" y="371.0" font-size="13" font-weight="600" fill="#111827" text-anchor="middle">DDC ×3 (EDDC)</text>
  <text x="356.0" y="388.0" font-size="11" fill="#6b7280" text-anchor="middle">VGA×1 HDMI×2</text>
  <rect x="422" y="352" width="108" height="46" rx="8" fill="#faf5ff" stroke="#d8b4fe" stroke-width="1.5"/>
  <text x="476.0" y="371.0" font-size="13" font-weight="600" fill="#111827" text-anchor="middle">MI2C</text>
  <text x="476.0" y="388.0" font-size="11" fill="#6b7280" text-anchor="middle">master I2C</text>
  <rect x="542" y="352" width="108" height="46" rx="8" fill="#faf5ff" stroke="#d8b4fe" stroke-width="1.5"/>
  <text x="596.0" y="371.0" font-size="13" font-weight="600" fill="#111827" text-anchor="middle">DBGI2C / DBGSPI</text>
  <text x="596.0" y="388.0" font-size="11" fill="#6b7280" text-anchor="middle">调试桥</text>
  <rect x="302" y="414" width="216" height="40" rx="8" fill="#f3f4f6" stroke="#d1d5db" stroke-width="1.5"/>
  <text x="410.0" y="430.0" font-size="11" font-weight="600" fill="#111827" text-anchor="middle">Pwr_ctrl / Level Shift / RX_SHORT_STB</text>
  <text x="410.0" y="447.0" font-size="11" fill="#6b7280" text-anchor="middle">iso · rst_n · power_on 输出</text>
  <rect x="532" y="414" width="108" height="40" rx="8" fill="#f3f4f6" stroke="#d1d5db" stroke-width="1.5"/>
  <text x="586.0" y="430.0" font-size="11" font-weight="600" fill="#111827" text-anchor="middle">Standby reg</text>
  <text x="586.0" y="447.0" font-size="11" fill="#6b7280" text-anchor="middle">寄存器堆</text>
  <path d="M 416 348 L 416 226" stroke="#2563eb" stroke-width="1.5" fill="none" marker-end="url(#ar-b)"/>
  <text x="330" y="232" font-size="11" fill="#2563eb">唤醒中断（Cable/CEC/AUX/ADC/DDC…）</text>
  <rect x="718" y="56" width="206" height="470" rx="10" fill="#fafafa" stroke="#d1d5db" stroke-width="1.5" stroke-dasharray="6,4"/>
  <text x="732" y="80" font-size="15" font-weight="600" fill="#111827">MAIN 域</text>
  <text x="732" y="97" font-size="11" fill="#6b7280">外部 DCDC 供电 · 可断电</text>
  <rect x="744" y="108" width="154" height="44" rx="8" fill="#ffffff" stroke="#d1d5db" stroke-width="1.5"/>
  <text x="821.0" y="126.0" font-size="13" font-weight="600" fill="#111827" text-anchor="middle">Video Path</text>
  <text x="821.0" y="143.0" font-size="11" fill="#6b7280" text-anchor="middle">显示主链路</text>
  <rect x="744" y="166" width="154" height="44" rx="8" fill="#ffffff" stroke="#d1d5db" stroke-width="1.5"/>
  <text x="821.0" y="192.0" font-size="13" font-weight="600" fill="#111827" text-anchor="middle">Audio Path</text>
  <rect x="744" y="224" width="154" height="44" rx="8" fill="#ffffff" stroke="#d1d5db" stroke-width="1.5"/>
  <text x="821.0" y="250.0" font-size="13" font-weight="600" fill="#111827" text-anchor="middle">DDR 控制</text>
  <rect x="744" y="282" width="154" height="44" rx="8" fill="#ffffff" stroke="#d1d5db" stroke-width="1.5"/>
  <text x="821.0" y="308.0" font-size="13" font-weight="600" fill="#111827" text-anchor="middle">PLL / 高速时钟</text>
  <rect x="744" y="340" width="154" height="62" rx="8" fill="#ffffff" stroke="#d1d5db" stroke-width="1.5"/>
  <text x="821.0" y="367.0" font-size="13" font-weight="600" fill="#111827" text-anchor="middle">APB_MAIN 外设</text>
  <text x="821.0" y="384.0" font-size="11" fill="#6b7280" text-anchor="middle">I2C0/I2C1 · UART …</text>
  <rect x="744" y="424" width="154" height="62" rx="8" fill="#fef2f2" stroke="#fca5a5" stroke-width="1.5"/>
  <text x="821.0" y="451.0" font-size="13" font-weight="600" fill="#111827" text-anchor="middle">供电开关</text>
  <text x="821.0" y="468.0" font-size="11" fill="#6b7280" text-anchor="middle">POWER_ON → 外部 DCDC</text>
  <line x1="226" y1="192" x2="258" y2="192" stroke="#ea580c" stroke-width="2" marker-end="url(#ar-o)"/>
  <text x="242" y="180" font-size="10.5" fill="#ea580c" text-anchor="middle">CLK/RST</text>
  <line x1="141" y1="238" x2="141" y2="222" stroke="#ea580c" stroke-width="1.5" marker-end="url(#ar-o)"/>
  <text x="120" y="232" font-size="11" fill="#ea580c" text-anchor="middle">脉冲</text>
  <path d="M 226 396 C 244 380, 250 340, 268 320" stroke="#ea580c" stroke-width="1.5" fill="none" stroke-dasharray="4,3" marker-end="url(#ar-o)"/>
  <line x1="572" y1="141" x2="740" y2="141" stroke="#ea580c" stroke-width="2" marker-end="url(#ar-o)"/>
  <text x="656" y="129" font-size="11" fill="#ea580c" text-anchor="middle">power_on / iso / rst_n</text>
  <path d="M 640 434 C 690 440, 700 448, 740 452" stroke="#ea580c" stroke-width="1.5" fill="none" stroke-dasharray="4,3" marker-end="url(#ar-o)"/>
  <path d="M 821 282 C 830 230, 700 160, 578 148" stroke="#6b7280" stroke-width="1.5" fill="none" stroke-dasharray="4,3" marker-end="url(#ar-gr)"/>
  <text x="712" y="206" font-size="11" fill="#6b7280" text-anchor="middle">mcu_clk / apb_clk（Active 时切高速）</text>
  <rect x="302" y="566" width="140" height="52" rx="8" fill="#f0fdf4" stroke="#86efac" stroke-width="1.5"/>
  <text x="372.0" y="588.0" font-size="13" font-weight="600" fill="#111827" text-anchor="middle">外部 EEPROM</text>
  <text x="372.0" y="605.0" font-size="11" fill="#6b7280" text-anchor="middle">保存待机/OFF 状态</text>
  <rect x="492" y="566" width="200" height="52" rx="8" fill="#faf5ff" stroke="#d8b4fe" stroke-width="1.5"/>
  <text x="592.0" y="588.0" font-size="13" font-weight="600" fill="#111827" text-anchor="middle">整机主机 / 调试主机</text>
  <text x="592.0" y="605.0" font-size="11" fill="#6b7280" text-anchor="middle">DDC · DBGI2C · DBGSPI</text>
  <line x1="356" y1="566" x2="356" y2="402" stroke="#16a34a" stroke-width="2" marker-end="url(#ar-g)"/>
  <text x="330" y="480" font-size="11" fill="#16a34a" text-anchor="middle">E2P 读写</text>
  <line x1="592" y1="566" x2="592" y2="402" stroke="#9333ea" stroke-width="2" stroke-dasharray="5,3" marker-end="url(#ar-p)"/>
  <text x="592" y="480" font-size="11" fill="#9333ea" text-anchor="middle">烧录 / 调试（密码握手）</text>
  <g>
  <line x1="46" y1="580" x2="78" y2="580" stroke="#ea580c" stroke-width="2" marker-end="url(#ar-o)"/>
  <text x="84" y="584" font-size="11" fill="#6b7280">电源/时钟/复位控制</text>
  <line x1="46" y1="602" x2="78" y2="602" stroke="#2563eb" stroke-width="1.5" marker-end="url(#ar-b)"/>
  <text x="84" y="606" font-size="11" fill="#6b7280">唤醒中断</text>
  <line x1="46" y1="624" x2="78" y2="624" stroke="#16a34a" stroke-width="1.5" marker-end="url(#ar-g)"/>
  <text x="84" y="628" font-size="11" fill="#6b7280">数据（E2P）</text>
  <line x1="190" y1="580" x2="222" y2="580" stroke="#9333ea" stroke-width="1.5" stroke-dasharray="5,3" marker-end="url(#ar-p)"/>
  <text x="228" y="584" font-size="11" fill="#6b7280">调试/烧录通道</text>
  <line x1="190" y1="602" x2="222" y2="602" stroke="#6b7280" stroke-width="1.5" stroke-dasharray="4,3" marker-end="url(#ar-gr)"/>
  <text x="228" y="606" font-size="11" fill="#6b7280">时钟切换路径</text>
  </g>
</svg>