  <!-- Auto-generated by tools/build_guide.py -->
  <svg xmlns="http://www.w3.org/2000/svg" viewBox="0 0 970 220" role="img" aria-label="HV2M23 testcase lifecycle">
    <style>
      text { font-family: 'Helvetica Neue', Helvetica, Arial, 'PingFang SC', 'Microsoft YaHei', sans-serif; }
      .bg { fill: #ffffff; }
      .box { fill: #ffffff; stroke: #d1d5db; stroke-width: 1.5; }
      .blue { fill: #eff6ff; stroke: #bfdbfe; stroke-width: 1.5; }
      .green { fill: #f0fdf4; stroke: #bbf7d0; stroke-width: 1.5; }
      .amber { fill: #fff7ed; stroke: #fed7aa; stroke-width: 1.5; }
      .purple { fill: #faf5ff; stroke: #e9d5ff; stroke-width: 1.5; }
      .ink { fill: #111827; font-size: 14px; font-weight: 600; }
      .small { fill: #6b7280; font: 12px Consolas, monospace; }
      .arrow { stroke: #2563eb; stroke-width: 2; fill: none; marker-end: url(#arrow-blue); }
      .arrow-green { stroke: #16a34a; stroke-width: 2; fill: none; marker-end: url(#arrow-green); }
      .arrow-orange { stroke: #ea580c; stroke-width: 1.7; fill: none; marker-end: url(#arrow-orange); }
      .arrow-purple { stroke: #9333ea; stroke-width: 1.7; fill: none; marker-end: url(#arrow-purple); }
      .dash { stroke-dasharray: 5 4; }
    </style>
    <defs>
      <marker id="arrow-blue" viewBox="0 0 10 10" refX="9" refY="5" markerWidth="7" markerHeight="7" orient="auto"><path d="M0 0 L10 5 L0 10 Z" fill="#2563eb"/></marker>
      <marker id="arrow-green" viewBox="0 0 10 10" refX="9" refY="5" markerWidth="7" markerHeight="7" orient="auto"><path d="M0 0 L10 5 L0 10 Z" fill="#16a34a"/></marker>
      <marker id="arrow-orange" viewBox="0 0 10 10" refX="9" refY="5" markerWidth="7" markerHeight="7" orient="auto"><path d="M0 0 L10 5 L0 10 Z" fill="#ea580c"/></marker>
      <marker id="arrow-purple" viewBox="0 0 10 10" refX="9" refY="5" markerWidth="7" markerHeight="7" orient="auto"><path d="M0 0 L10 5 L0 10 Z" fill="#9333ea"/></marker>
    </defs>
    <rect class="bg" width="970" height="220"/>

<rect class="blue" x="30" y="72" width="150" height="76" rx="5"/><text class="ink" x="105" y="101" text-anchor="middle">选择模板</text><text class="small" x="105" y="123" text-anchor="middle">closest testcase</text>
<rect class="box" x="220" y="72" width="150" height="76" rx="5"/><text class="ink" x="295" y="101" text-anchor="middle">创建目录</text><text class="small" x="295" y="123" text-anchor="middle">create_new_case.sh</text>
<rect class="amber" x="410" y="72" width="150" height="76" rx="5"/><text class="ink" x="485" y="101" text-anchor="middle">配置证据</text><text class="small" x="485" y="123" text-anchor="middle">macro / cfg / pattern</text>
<rect class="green" x="600" y="72" width="150" height="76" rx="5"/><text class="ink" x="675" y="101" text-anchor="middle">启用 checker</text><text class="small" x="675" y="123" text-anchor="middle">*_check_on</text>
<rect class="blue" x="790" y="72" width="150" height="76" rx="5"/><text class="ink" x="865" y="101" text-anchor="middle">运行与定位</text><text class="small" x="865" y="123" text-anchor="middle">run_tc.sh / artifacts</text>
<path class="arrow" d="M180 110 H220"/><path class="arrow" d="M370 110 H410"/><path class="arrow" d="M560 110 H600"/><path class="arrow" d="M750 110 H790"/>
<text class="small" x="31" y="190">Only add to case_list.txt after the testcase has deterministic checks and reproducible inputs.</text>

  </svg>
